<?xml version="1.0" encoding="UTF-8"?>
<svg width="1744px" height="1204px" viewBox="0 0 1744 1204" version="1.1" xmlns="http://www.w3.org/2000/svg" xmlns:xlink="http://www.w3.org/1999/xlink">
    <title>Gesture/9 Wave Long Arm</title>
    <g id="Gesture/9-Wave-Long-Arm" stroke="none" stroke-width="1" fill="none" fill-rule="evenodd">
        <g id="Gesture/Wave-Long-Arm" transform="translate(1310.505553, 92.164203)" fill-rule="nonzero">
            <path d="M413.566447,1099.3358 L177.631447,1101.8958 C177.631447,1101.8958 113.331447,1026.6568 146.388447,827.795797 C151.168447,799.036797 131.038447,617.595797 130.339447,603.782797 C128.506447,567.545797 115.315447,497.813797 98.0454466,470.382797 C19.9384466,346.320797 32.3754466,327.764797 28.7134466,299.647797 C24.8414466,269.915797 18.1384466,218.455797 13.3854466,198.598797 C11.1934466,189.444797 -4.78555337,124.487797 13.0614466,122.567797 C98.2384466,113.404797 69.6394466,274.433797 102.515447,261.314797 C152.729447,241.275797 166.569447,177.692797 166.569447,177.692797 C166.569447,177.692797 241.611447,6.49279668 275.885447,6.49279668 C289.974447,6.49279668 268.560447,95.0617967 268.560447,95.0617967 C268.560447,95.0617967 346.394447,3.87279668 363.084447,4.81936314 C379.774447,5.78079668 350.866447,75.3357967 350.866447,75.3357967 C350.866447,75.3357967 387.380447,47.1847967 400.698447,57.4217967 C418.328447,70.9737967 324.623447,208.490797 338.458447,209.264797 C348.943447,209.851797 369.275447,175.344797 382.404447,169.486797 C404.510447,159.624797 412.363447,157.756797 413.214447,177.855797 C414.114447,199.155797 365.539447,263.407797 342.868447,299.649797 C331.174447,318.342797 262.005447,427.049797 246.868447,456.890797 C227.723447,494.635797 265.423447,557.943797 280.682447,588.462797 C295.941447,618.981797 354.800447,795.602797 375.554447,827.771797 C396.308447,859.940797 416.421447,911.597797 423.267447,966.465797 C430.830447,1027.1098 413.566447,1099.3358 413.566447,1099.3358 Z" id="Color-8" fill="#FFFFFF"></path>
            <path d="M121.825447,592.886797 C116.470447,557.996797 115.425447,522.686797 98.2704466,489.751797 C87.2214466,468.535797 74.7704466,447.787797 65.4084466,425.822797 C52.4914466,395.534797 29.9894466,369.839797 23.5084466,336.541797 C21.3860138,324.788547 21.3894007,312.74985 23.5184466,300.997797 C26.7674466,281.615797 20.7274466,264.055797 17.5444466,245.697797 C11.8354466,212.766797 1.73544663,180.588797 0.0274466297,147.007797 C-0.18612927,140.19167 0.84820734,133.393923 3.07944663,126.949797 C7.62544663,113.336797 23.3704466,110.456797 38.1074466,120.680797 C54.7674466,132.237797 64.9614466,148.023797 73.8434466,166.745797 C85.9944466,192.359797 87.5094466,218.889797 90.4494466,245.703797 C91.6434466,256.590797 99.4954466,260.149797 109.449447,253.377797 C128.364516,240.624721 142.7529,222.206889 150.549447,200.767797 C159.740447,175.497797 172.790447,152.304797 184.073447,128.181797 C196.782447,101.009797 209.796447,73.9377967 225.065447,48.0727967 C235.008447,31.2277967 246.188447,15.2657967 263.343447,4.75079668 C269.267447,1.11979668 275.681447,-1.81720332 282.450447,2.48579668 C289.878447,7.20779668 287.009447,13.9947967 286.012447,20.8217967 C283.091447,40.8217967 280.292447,60.8137967 273.478447,80.4807967 C283.598447,71.8897967 289.995447,60.6717967 298.403447,51.1737967 C312.927447,34.7677967 327.237447,18.3337967 344.803447,4.99279668 C352.080447,-0.535203316 359.784447,-1.48320332 367.520447,2.20079668 C375.305447,5.90879668 374.761447,13.7507967 375.004447,21.1647967 C375.416447,33.7847967 374.114447,45.7717967 366.278447,57.1947967 C370.204447,55.5377967 374.478447,54.4177967 377.984447,52.1167967 C386.821447,46.3167967 396.522447,45.2607967 403.701447,52.4267967 C412.041447,60.7507967 413.535447,72.9907967 408.412447,83.3877967 C396.630447,107.301797 383.903447,130.799797 370.418447,153.796797 C365.465447,162.243797 364.081447,172.491797 356.866447,179.946797 C368.253447,173.225797 377.476447,163.585797 389.500447,157.884797 C405.843447,150.134797 416.131447,155.277797 418.021447,173.302797 C419.596447,188.320797 411.757447,200.351797 404.447447,212.271797 C385.180447,243.684797 364.222447,274.043797 346.525447,306.440797 C334.725447,328.040797 319.374447,347.377797 306.170447,368.061797 C288.687447,395.448797 267.975447,421.100797 256.807447,452.121797 C247.314447,478.491797 250.263447,503.497797 262.860447,529.104797 C277.184447,558.224797 287.160447,589.449797 300.421447,619.135797 C320.858447,664.884797 331.345447,714.569797 353.821447,759.155797 C371.879447,794.984797 389.297447,831.162797 407.760447,866.796797 C411.584447,874.177797 412.202447,882.242797 414.160447,889.978797 C423.525447,927.025797 432.627447,964.300797 432.681795,1002.7298 C432.717447,1028.1568 429.955447,1053.5898 426.210447,1078.8298 C425.057447,1086.6058 421.540447,1093.3568 417.731447,1101.0538 C413.834098,1101.9018 409.796329,1101.9018 405.905447,1101.0098 C405.948447,1098.6208 407.105447,1097.2098 407.521447,1095.6098 C419.167447,1050.9428 419.381447,1005.7838 413.014447,960.390797 C409.825447,937.663797 404.826447,915.331797 399.156447,893.067797 C395.256447,877.742797 388.626447,860.202797 376.998447,847.862797 C404.111447,933.052797 420.617447,1018.0498 373.820447,1101.9018 L339.170447,1101.9018 C361.852447,1069.0498 363.470447,1030.2998 367.814447,992.048797 C371.629447,958.471797 372.014447,924.948797 367.895447,891.572797 C364.319447,862.566797 356.214447,834.340797 349.387447,805.922797 C342.762447,778.343797 333.977447,751.296797 325.375447,724.415797 C315.345447,693.075797 305.949447,661.177797 291.475447,631.371797 C275.056447,597.571797 259.087447,563.460797 246.975447,527.971797 C236.875447,498.393797 233.939447,468.354797 249.523447,438.035797 C266.987447,404.059797 286.094447,371.370797 308.923447,340.791797 C324.947447,319.327797 335.356447,294.491797 349.935447,272.123797 C366.977447,245.981797 382.883447,219.080797 400.471447,193.323797 C407.399447,183.178797 405.810447,175.679797 399.707447,167.101797 C366.293447,181.944797 350.068447,216.185797 321.583447,235.620797 C314.963447,230.975797 316.531447,226.394797 318.659447,222.201797 C331.859447,196.195797 345.930447,170.657797 359.802447,145.010797 C371.502447,123.377797 384.183447,102.354797 396.110447,80.8847967 C399.737447,74.3557967 401.747447,66.2427967 395.787447,60.8727967 C389.938447,55.6017967 384.487447,61.2097967 379.196447,65.1617967 C358.425447,80.6857967 344.289447,101.961797 328.788447,122.072797 C317.359447,136.902797 307.620447,152.841797 298.062447,168.903797 C296.589447,171.378797 295.211447,174.247797 290.652447,174.673797 C286.385447,169.073797 289.809447,163.691797 292.538447,158.973797 C301.666447,143.196797 312.075447,128.114797 320.498447,111.985797 C334.737447,84.7197967 353.073447,59.3417967 359.937447,28.5307967 C361.274447,22.5307967 361.697447,16.9757967 358.361447,9.98279668 C308.228447,49.8677967 276.041447,102.655797 247.885447,158.611797 L241.539447,155.585797 C259.894447,110.497797 266.375447,62.9587967 274.726447,14.4917967 C255.926447,21.2917967 247.673447,37.1447967 239.226447,51.4827967 C215.597447,91.5767967 194.626447,133.150797 175.146447,175.431797 C165.813447,195.688797 159.493447,217.531797 145.461447,235.299797 C134.474447,249.207797 123.538447,263.507797 105.151447,269.039797 C90.1734466,273.545797 79.0574466,266.839797 78.7444466,251.139797 C78.3254466,230.139797 76.3444466,208.757797 69.8914466,189.463797 C62.1094466,166.207797 48.8624466,144.295797 27.5164466,129.611797 C19.6614466,124.211797 14.0234466,127.723797 13.2804466,137.982797 C12.0714466,154.658797 14.9214466,171.131797 18.1264466,187.289797 C27.2144466,233.113797 38.7474466,278.573797 34.0914466,325.944797 C32.7604466,339.485797 41.9434466,349.063797 47.5084466,359.650797 C63.0564466,389.233797 81.4254466,417.402797 95.8664466,447.481797 C115.489497,488.364063 128.406264,532.137571 134.121447,577.123797 C142.990447,645.965797 145.821447,715.187797 149.771447,784.380797 C151.144447,808.421797 157.200447,832.157797 160.071447,856.157797 C165.224447,899.257797 178.987447,940.286797 191.471447,981.365797 C204.678447,1024.8178 224.862447,1065.6368 255.761447,1101.0938 C250.158058,1101.9018 244.468508,1101.91571 238.861447,1101.1328 C189.167447,1040.7388 172.822447,967.669797 151.285447,895.683797 C142.985447,906.749797 141.751447,918.671797 141.215447,931.063797 C140.347447,951.118797 142.599447,971.037797 144.791447,990.782797 C146.99219,1011.76634 152.261712,1032.31309 160.431447,1051.7658 C167.713447,1068.8918 179.006447,1083.9808 184.391447,1101.9018 L172.658447,1101.9018 C157.386447,1084.7128 148.777447,1064.9448 141.830447,1043.7778 C128.679447,1003.7118 124.710447,962.677797 124.630447,920.938797 C124.615447,913.667797 124.797447,906.454797 127.001447,899.462797 C135.115447,873.726797 133.842447,846.545797 138.993447,820.277797 C140.993447,810.063797 135.383447,798.596797 135.150447,787.659797 C134.287447,747.230797 133.406447,706.816797 130.030447,666.499797 C129.179447,656.332797 128.267447,646.166797 127.106447,636.031797 C104.922447,442.563797 122.303447,596.000797 121.825447,592.886797 Z M388.216447,969.619797 C387.777447,966.740797 389.050447,963.265797 385.679447,960.990797 C382.407447,992.804797 383.994447,1024.5278 376.171447,1055.3798 C383.596447,1027.9418 390.405447,1000.4538 388.216447,969.619797 L388.216447,969.619797 Z" id="Path_5927" fill="#000000"></path>
            <path d="M200.599447,305.453797 C197.694447,329.453797 191.950447,351.113797 177.751447,370.621797 C171.726447,365.148797 172.660447,360.770797 174.296447,356.934797 C189.896447,320.373797 188.574447,281.334797 191.246447,242.884797 C191.394447,240.757797 191.497447,238.624797 191.520447,236.493797 C191.562447,232.403797 191.929447,228.578797 197.431447,228.678797 C202.886447,228.778797 203.514447,233.225797 203.516447,236.826797 C203.524447,251.285797 203.947447,265.851797 202.316447,280.161797 C201.402447,288.217797 200.852447,296.203797 200.599447,305.453797 Z" id="Path_5928" fill="#000000"></path>
            <path d="M220.323447,440.699797 C225.105447,437.929797 229.449447,436.448797 231.935447,441.535797 C233.645447,445.035797 230.235447,447.194797 227.935447,449.823797 C219.821447,459.123797 210.977447,467.205797 199.790447,472.774797 C191.429447,476.936797 183.519447,476.253797 175.481447,472.492797 C172.528447,471.111797 170.947447,468.782797 171.427447,465.368797 C171.998447,461.300797 175.087447,461.228797 178.106447,461.314797 C195.409447,461.809797 208.107447,452.870797 220.323447,440.699797 Z" id="Path_5929" fill="#000000"></path>
            <path d="M246.628447,298.741797 C252.306447,296.858797 257.153447,295.882797 261.428447,299.900797 C255.057447,310.377797 231.513447,322.044797 220.728447,320.060797 C223.986447,306.735797 236.966447,305.402797 246.628447,298.741797 Z" id="Path_5930" fill="#000000"></path>
        </g>
    </g>
</svg>