<?xml version="1.0" encoding="UTF-8"?>
<svg width="1324px" height="694px" viewBox="0 0 1324 694" version="1.1" xmlns="http://www.w3.org/2000/svg" xmlns:xlink="http://www.w3.org/1999/xlink">
    <title>Body/48</title>
    <g id="Body/48" stroke="none" stroke-width="1" fill="none" fill-rule="evenodd">
        <g id="Body/18" transform="translate(-27.010000, 30.000000)" fill-rule="nonzero">
            <path d="M1378,658 L8,654.69756 C8,654.69756 19.391271,557.735919 52.3755158,465.553809 C93.5806014,350.379711 159.636312,233.691494 177.396817,219.457977 C198.290972,202.714606 165.806934,201.252526 180.864639,178.295564 C214.386922,127.191805 327.907663,80.8135381 360.786822,64.1522277 C419.485495,34.4052487 525.696487,16.4089519 525.696487,16.4089519 L552.927299,69.8764571 C552.927299,69.8764571 616.474618,91.7926502 691.603413,94.2614743 C732.107578,95.591457 826.069801,64.7856957 826.069801,64.7856957 L814.879244,7 C814.879244,7 984.524062,41.8317359 1068.3655,92.611255 C1116.69959,121.885885 1176.99241,167.596659 1178.43943,193.847054 C1180.62837,233.553392 1180.19541,230.548172 1202.5429,245.671345 C1256.03143,281.873094 1301.33275,367.617447 1323.79268,436.912647 C1341.36719,491.143716 1378,658 1378,658 Z" id="Color-11" fill="#FFFFFF"></path>
            <path d="M869,657.000574 L600.083804,658 C600.083804,658 618.91057,475.54682 598.659059,332.928755 C592.392906,288.791113 566,108.628617 566,108.628617 C566,108.628617 639.729252,133.335423 697.413085,133.335423 C759.92889,133.335423 824.937737,101 824.937737,101 C824.937737,101 849.241227,169.970376 853.851992,283.370227 C857.47833,372.499022 869,657.000574 869,657.000574 Z" id="Color-12" fill="#000000"></path>
            <path d="M384.444263,658 C366.311923,605.57937 340.05647,556.964898 315.552712,507.61978 C308.32645,493.070821 301.986537,478.111061 295.593065,463.203276 C292.412081,455.785866 293.531569,448.787253 297.330056,441.234908 C306.546401,422.908777 314.552944,404.032913 323.076173,385.387936 C335.561568,358.299554 349.736916,331.94563 365.526391,306.467132 C376.044955,289.366408 386.602375,272.283675 397.670181,254.346357 C385.803191,250.10441 374.486494,251.678648 363.714837,251.147905 C330.619588,249.529688 298.629124,242.692996 266.240643,236.827835 C242.821716,232.587887 220.723911,221.42429 195.906149,223.703187 C189.16927,224.321888 184.178833,225.894127 180.217569,231.538395 C144.506331,282.41877 112.638737,335.496082 89.1820039,392.38455 C64.8557249,451.382997 43.1842911,511.468917 32.2120513,574.403458 C27.481008,601.543323 22.9358459,628.713174 17.974814,656.932517 C12.1536879,658 6.66546766,658 0,658 C4.83081003,625.025958 10.3641879,591.967958 17.032806,559.118856 C20.9100562,540.0181 26.7857914,521.291163 31.4443726,502.325342 C37.2392442,478.736758 45.5167322,455.902809 53.7018047,433.003892 C63.3109159,406.111906 73.8441821,379.593741 86.0766332,353.691277 C102.43461,319.381165 121.16898,286.143055 142.156037,254.196429 C150.699219,241.090772 158.300394,226.662755 170.300756,215.628095 C176.160738,210.241702 176.496795,205.210137 172.271936,198.667304 C167.321406,191.002013 168.646729,183.836481 174.85852,176.528018 C197.443607,149.957878 227.250755,132.408371 257.446468,115.242679 C301.795405,90.03188 347.532674,67.2589015 393.532487,44.9466999 C426.315834,29.0443962 461.603851,20.2996284 497.175416,12.562373 C503.696985,11.1692156 510.140929,9.46522654 516.482903,7.45684391 C526.332505,4.30137106 532.709174,6.48131604 538.137534,16.0127031 C545.199969,28.4147009 549.728328,41.7072677 555.912815,54.3771359 C559.502317,61.7295775 564.344679,66.1954162 572.792295,69.1249983 C623.456991,86.6924962 675.968946,89.3152268 728.83481,86.0288174 C752.837635,84.5345406 776.142093,77.0491633 798.120178,67.2059271 C807.041424,63.207862 812.961266,57.1697843 810.254963,46.0721552 C807.944575,36.6007391 807.452043,26.728517 806.159276,17.0332092 C804.557757,5.01102761 809.867448,-0.867127533 822.635489,0.103402759 C847.640181,2.00248366 871.917102,7.85165283 895.614326,15.2190872 C933.718915,27.065354 971.821404,39.3004325 1008.24781,55.2217271 C1064.22745,79.6898852 1118.62132,106.896718 1160.10327,152.164809 C1164.16851,156.599663 1167.9796,161.360359 1172.63188,165.172514 C1188.10202,177.830388 1191.46258,193.917602 1186.28416,211.519084 C1182.36386,224.843635 1194.82945,226.617776 1200.99923,231.142587 C1232.96344,254.584241 1260.52846,281.318303 1278.77632,316.001517 C1299.35978,355.12958 1316.26026,395.77291 1330.67078,437.205858 C1339.1688,461.640032 1346.17663,486.657925 1353.28527,511.583861 C1366.86404,559.190821 1371.13826,608.315046 1383,657.09044 C1379.63104,658 1375.89766,658 1371.04375,658 C1360.9274,619.150802 1352.85995,580.118692 1343.74442,541.282488 C1335.17918,504.794147 1323.98851,469.181383 1311.81906,433.83449 C1299.70423,398.66551 1283.15766,365.114748 1267.59405,331.16118 C1249.59088,291.880191 1219.5863,265.217095 1185.07751,240.925852 C1175.30037,234.043183 1165.82043,231.644344 1152.97468,233.26356 C1116.81397,237.820355 1082.74625,248.20233 1050.14984,262.97718 C1035.05986,269.816869 1020.68085,278.469682 1008.42109,289.679256 C1003.19226,294.457944 1000.67394,299.309596 1005.42809,306.445142 C1020.3868,328.894278 1035.23734,351.438367 1049.09336,374.5122 C1058.74658,390.584421 1068.425,406.649646 1076.56387,423.62543 C1082.44485,435.89949 1078.97927,445.653769 1072.72967,454.692395 C1047.86781,490.656989 1023.40605,526.864466 1000.4072,563.916534 C982.455487,592.836537 969.637038,624.043434 958.882184,657.05046 C952.220917,658 945.848449,658 938.28088,658 C949.449503,638.673354 955.262227,616.657009 964.526881,596.068973 C978.999982,564.250556 996.966824,533.977557 1018.12787,505.754682 C1032.72532,486.070209 1043.08845,463.799987 1059.32418,445.034069 C1063.6299,440.061476 1062.82336,433.619594 1059.52581,427.009793 C1042.52031,392.926288 1020.14421,361.878314 999.918865,329.616928 C995.11851,321.960633 990.639509,314.076449 986.663543,306.006355 C982.462838,297.473484 983.630634,289.36141 991.244411,282.775598 C1017.95788,259.601369 1049.66565,242.257996 1084.15244,231.957192 C1109.34406,224.317889 1135.13639,219.578183 1160.89301,214.436672 C1170.17761,212.582569 1175.01788,202.670366 1170.47586,193.412847 C1162.86419,177.900354 1151.65881,164.45786 1138.78155,152.841482 C1097.71966,115.794412 1050.28846,88.1977677 997.774406,68.0415227 C969.720002,57.2747335 941.9796,45.7223245 913.368603,36.3738489 C887.610934,27.957922 860.93226,22.6804761 834.249386,17.5769461 C827.793954,16.341544 824.842959,18.430533 825.112854,24.7054961 C825.274581,28.5346429 824.761045,32.4657403 825.482516,36.1869394 C829.930012,59.1258376 834.312397,82.0837267 839.336439,104.912678 C849.313112,150.249736 855.346374,196.149522 859.805421,242.172249 C864.681389,292.486898 866.679874,343.003449 871.807884,393.365076 C875.62004,430.225238 876.684081,467.296112 874.992018,504.299387 C872.955726,547.193627 873.797968,590.209808 873.116403,633.169017 C872.995633,640.78733 871.533788,648.386653 870.286179,656.996486 C865.271588,658 860.663415,658 854.902149,658 C854.852791,632.964117 856.183364,607.938228 857.014053,582.897347 C859.032492,522.091776 860.649763,461.301196 854.283595,400.578584 C851.494328,373.978458 850.397944,347.221408 847.895374,320.591296 C843.080317,269.416063 843.799687,217.793047 832.430481,167.121571 C829.489988,153.991925 828.54483,140.225588 826.15988,126.805083 C824.293717,116.29417 817.462321,113.706422 808.816221,117.78245 C779.803007,131.462829 748.612777,134.938147 717.030831,137.336986 C674.482947,140.570421 632.549415,137.691814 591.352057,126.664151 C586.550652,125.378773 581.480402,124.251319 577.427772,128.107453 C573.332086,131.998569 576.832323,135.975645 577.868846,139.97371 C586.086474,171.695357 590.822769,204.06669 597.478785,236.046213 C605.872842,276.380693 603.538301,317.328875 609.411936,357.757309 C614.258706,390.972617 617.068136,424.428469 617.825946,457.954816 C618.933882,508.958132 619.765622,560.052404 614.08837,610.980756 C612.440643,625.758604 612.713689,640.730358 611.947061,656.803579 C606.298163,658 600.815194,658 594.144476,658 C592.974579,627.35683 600.053816,597.261396 600.676571,566.670201 C601.297225,536.172961 603.077273,505.652732 602.370505,475.184477 C601.069337,419.117612 591.105266,363.666449 587.488459,307.755508 C584.747718,266.272529 578.991228,225.020053 570.260321,184.29426 C560.192282,137.009144 546.750028,90.3677175 534.396807,43.5363825 C529.191084,23.7999343 525.546973,22.5235521 505.438201,27.7950008 C487.006561,32.6266625 468.250416,36.1259689 449.883886,41.4823765 C428.450842,47.7333513 408.533202,56.7679788 388.749985,66.3323499 C359.851239,80.3045877 330.296134,93.2583185 302.447564,108.939729 C262.819169,131.25393 220.701857,150.619557 190.078722,185.102868 C188.668336,186.6911 187.493189,188.46824 185.581868,190.982023 C198.218637,203.929757 215.450977,207.895837 231.646792,212.636543 C247.328022,217.225322 264.335624,217.748069 279.963294,222.45779 C314.144425,232.757805 349.503854,232.117115 384.509374,235.046697 C388.058975,235.399792 391.553947,236.141334 394.925021,237.256628 C412.588982,242.82993 415.106255,251.025964 407.0283,267.209131 C385.672969,309.994425 357.961973,349.644235 338.406644,393.248132 C330.746659,410.326867 323.550853,427.585514 314.802886,444.194476 C310.098097,453.127152 312.282463,461.925894 316.134509,469.973 C336.644448,512.827259 358.016582,555.310699 378.326987,598.248918 C387.253484,617.127781 394.377879,636.781269 402.205891,657.040464 C396.597951,658 391.109731,658 384.444263,658 Z M816.497209,85.1492431 C815.646567,75.9666871 810.134192,78.8352988 805.260325,81.45703 C788.676995,90.368717 770.499497,94.0369417 752.08991,97.8490967 C717.981932,104.999271 682.766968,105.993338 648.273702,100.779678 C625.040656,97.2813715 602.049151,92.3197727 578.968381,87.9288978 C574.257291,87.0293331 568.856235,84.2086982 567.132896,91.3482429 C565.776069,96.9715214 568.28809,101.068539 573.883428,103.811211 C582.546109,108.210566 591.745772,111.576352 601.274121,113.832361 C649.267168,124.55817 697.76325,125.072921 746.408457,119.607566 C766.232631,117.380644 785.685043,112.629943 803.248188,103.332443 C809.567097,99.987062 818.446336,96.7496288 816.497209,85.1492431 L816.497209,85.1492431 Z" id="Path_5796" fill="#000000"></path>
            <path d="M226,658 C229.001432,623.092014 233.091526,588.174042 237.384235,553.27804 C241.040754,523.559215 241.417639,493.235187 254.782882,465.253072 C255.808991,462.919368 257.07492,460.687794 258.56223,458.590854 C260.919073,455.483949 263.631805,451.836757 268.293001,453.355754 C273.62713,455.093464 271.885481,459.840207 271.041426,463.256703 C263.090099,495.442277 257.666735,528.080255 253.334133,560.808115 C249.163202,592.309591 247.094009,624.063733 243.871066,656.853511 C238.149553,658 232.6632,658 226,658 Z" id="Path_5797" fill="#000000"></path>
            <path d="M1176.87017,658 C1167.08941,621.679155 1164.06903,584.315482 1153.59175,548.340912 C1147.44804,527.249161 1143.76686,505.537919 1135.71007,484.917542 C1134.06909,480.714204 1135.22787,475.978443 1139.65075,473.72065 C1144.1209,471.437837 1147.07614,475.046703 1149.57964,478.024068 C1155.01211,484.482197 1157.48304,492.501565 1159.50748,500.109607 C1171.04656,543.539551 1180.26104,587.500126 1187.11529,631.821209 C1188.3476,639.76752 1188.27091,647.896976 1189,656.971183 C1185.46065,658 1181.72589,658 1176.87017,658 Z" id="Path_5798" fill="#000000"></path>
            <path d="M831.299098,515.292212 C829.106434,511.56231 825.953164,508.466562 822.998749,505.282793 C818.852258,500.92874 814.655263,496.618699 810.465634,492.302655 C794.987573,476.356801 779.345377,460.556982 763.771571,444.691148 C750.198939,430.702767 736.43587,416.7724 724.666609,401.34167 C721.482827,396.778567 720.846282,396.54051 718.820908,392.587554 C719.525926,392.08256 720.312689,391.690003 721.150351,391.425273 C726.819292,389.433792 735.388988,388.6386 743.66619,387.924427 C755.425981,386.883175 767.217336,386.070979 778.921364,384.54461 C787.164897,383.165277 795.833495,381.97799 803.214271,378.033036 C809.228315,374.484179 810.713939,367.242428 807.230297,361.513044 C805.248062,358.203244 802.345202,355.536599 799.493897,352.910964 C795.464193,349.21007 791.335588,345.6092 787.196461,342.026334 C783.144662,338.475475 779.023422,335.000635 774.872722,331.558804 C771.982137,328.632763 769.060689,325.736063 766.108379,322.868703 C745.873584,302.724834 723.595529,284.615457 700.498907,267.518325 C688.178324,258.216077 675.728328,249.068866 662.949011,240.343757 C659.242315,237.822147 655.534566,235.295537 651.616389,233.075 C648.758772,231.346582 644.314524,229.135048 642.875194,233.748163 C639.59251,242.225212 646.235735,247.825565 651.362823,253.800009 C657.837004,261.12578 664.295753,268.46322 670.73907,275.81233 C685.784701,292.965476 705.472383,316.294114 715.320432,331.391763 C720.206579,338.967594 723.021059,343.870779 724.622419,349.41812 L724.727633,349.798212 C724.292047,350.358347 724.344654,350.235318 722.320333,351.261566 C719.507957,352.310819 715.079491,352.873955 709.694628,353.417087 C698.390415,354.648384 687.073575,355.863678 675.867211,357.739131 C660.698479,360.218731 646.666061,364.321722 653.035729,382.071012 C654.613942,385.930945 657.735647,388.984683 660.485947,392.117441 C664.740809,396.743559 669.265019,401.137621 673.83342,405.481671 C686.193984,417.084475 698.788124,428.463225 711.329657,439.889987 C726.458758,453.626641 741.879653,467.063222 757.592341,480.19973 C774.439239,494.273132 791.541808,508.16649 809.980596,520.337431 C813.937888,522.970551 818.10066,525.312909 822.432697,527.344125 C824.867354,528.335364 827.616601,529.705696 830.238539,528.573422 C834.136725,525.354644 833.347618,519.316184 831.299098,515.292212 Z M715.731819,428.571251 C700.265332,414.445837 668.79366,386.379054 660.586952,376.120574 C665.438379,373.304894 669.1819,372.951808 674.270059,371.887551 C684.306442,370.168135 694.428048,368.952842 704.559123,367.863578 C711.346491,366.970363 718.411625,366.892344 724.8339,364.410744 C730.742729,361.604066 732.355663,355.1265 732.124192,349.316096 C730.996296,331.79086 711.828372,309.334432 700.931338,295.203016 C691.852404,283.863276 682.32631,272.864617 672.724462,261.923973 L672.765496,261.95298 C687.720642,272.598553 702.292809,283.719241 716.835516,294.866935 C724.939114,300.973078 733.135651,306.965526 741.425127,312.84428 C750.514933,321.108945 759.64963,329.328264 768.829218,337.50224 C778.83088,346.536424 794.441511,359.116464 801.748637,367.37446 C794.263699,372.248638 776.506698,373.699989 765.61282,374.763246 C755.687964,375.652461 745.737857,376.282613 735.816158,377.206837 C730.160895,377.776975 724.398313,378.060043 718.975573,379.818468 C710.504778,382.608142 710.469005,393.262717 713.249816,399.979341 C715.151037,404.653471 718.466336,408.653437 721.35131,412.804441 C727.387219,420.749543 733.86464,428.382897 740.755965,435.671968 C762.688917,459.044617 785.621404,481.547056 808.005726,504.52861 C791.420811,493.145859 778.618347,482.637319 763.872577,470.396361 C747.536319,456.756397 731.489399,442.813027 715.731819,428.56625 L715.731819,428.571251 Z" id="Path_5799" fill="#FFFFFF"></path>
        </g>
    </g>
</svg>