<svg xmlns="http://www.w3.org/2000/svg" viewBox="0 0 1024 1024">
  <g transform="translate(-49.15 -261.69) scale(0.993620)">
  <g transform="matrix(1 0 0 1 142.173243 153.831353)"><path d="M246.788883,80.9433071 C278.502883,52.2143071 313.259883,31.5373071 352.941883,16.4293071 C387.972883,3.09130712 422.770883,-0.13569288 459.070883,0 C499.595883,0.16030712 533.570883,18.6143071 571.410883,31.8883071 C628.821883,52.0273071 747.561883,157.946307 712.910883,294.169307 C708.330883,312.178307 705.359883,329.990307 700.115883,347.001307 C693.190883,369.463307 696.899883,390.277307 698.573883,412.201307 C702.367883,461.894307 744.660883,526.112307 750.142883,575.401307 C753.981883,609.919307 756.303883,644.011307 750.842883,678.193307 C746.397883,706.020307 729.183883,749.111307 720.967883,775.618307 C715.447883,793.427307 681.482883,779.672307 666.593883,792.961307 C661.309883,790.897307 660.086883,788.330307 659.436883,783.889307 C656.836883,766.155307 662.582883,750.632307 669.780883,734.989307 C675.727883,722.064307 677.286883,707.580307 681.587883,693.834307 C672.296549,710.83964 663.002883,727.842974 653.706883,744.844307 C652.684883,746.710307 651.606883,748.552307 650.440883,750.328307 C640.521883,765.417307 636.403883,766.816307 620.290883,759.509307 C605.300883,752.709307 591.407883,743.709307 575.913883,737.793307 C571.557883,736.129307 567.586883,734.303307 562.824883,733.819307 C549.559883,732.470307 544.194883,721.476307 538.044883,711.980307 C535.904883,708.674307 539.398883,706.292307 542.187883,703.880307 C559.045883,689.313307 578.913883,679.065307 598.260883,669.121307 C628.280883,653.690307 642.977883,627.552307 656.066883,599.338307 C669.188883,571.054307 675.253883,540.650307 680.049883,510.149307 C685.073883,478.192307 680.712883,446.041307 678.940883,414.049307 C677.740883,392.419307 674.076883,370.920307 682.325883,349.819307 C683.336883,347.235307 683.105883,343.788307 682.436883,340.983307 C675.145883,310.424307 669.178883,279.556307 666.358883,248.323307 C663.605883,217.823307 622.520883,97.7233071 550.028883,145.641307 C528.574883,159.822307 519.952883,176.967307 503.445883,207.908307 C485.506883,241.530307 459.359883,266.620307 426.757883,285.633307 C409.185883,295.881307 391.157883,306.118307 371.529883,310.471307 C348.015883,315.687307 324.703883,322.623307 300.399883,324.301307 C283.621883,325.459307 269.543883,333.670307 257.208883,344.415307 C232.744883,365.725307 237.302883,389.100307 257.749883,416.848307 C281.728883,449.388307 302.819883,484.002307 308.924883,523.467307 C314.088883,556.844307 315.295883,591.630307 303.238883,625.641307 C296.251883,645.350307 286.326883,663.202307 277.956883,682.000307 C267.015883,706.570307 269.708883,731.507307 280.129883,756.753307 C248.474883,776.564307 215.213883,771.216307 180.967883,766.153307 C182.612883,775.643307 175.319883,775.537307 168.175883,775.184307 C140.236883,773.803307 112.058883,773.897307 85.6968828,762.292307 C83.8368828,761.473307 80.8858828,760.430307 79.6968828,761.269307 C74.3718828,765.027307 51.9888828,778.632307 16.8218828,724.669307 C2.70088276,702.997307 -0.732117236,678.582307 0.121882764,653.985307 C0.945882764,630.336307 4.27088276,606.600307 8.54988276,583.279307 C19.2668828,524.879307 46.9898828,474.452307 84.6498828,429.273307 C110.213883,398.603307 128.199883,364.054307 133.684883,324.715307 C136.966883,301.178307 138.817883,277.630307 144.884883,254.423307 C157.034883,207.943307 175.729883,165.138307 205.784883,127.085307 C218.438883,111.048307 230.823883,95.1063071 246.788883,80.9433071 Z" fill="var(--wolfy-ink)"/></g>
  </g>
</svg>
