<?xml version="1.0" encoding="UTF-8"?>
<svg width="1059px" height="993px" viewBox="0 0 1059 993" version="1.1" xmlns="http://www.w3.org/2000/svg" xmlns:xlink="http://www.w3.org/1999/xlink">
    <title>Hair/13</title>
    <g id="Hair/13" stroke="none" stroke-width="1" fill="none" fill-rule="evenodd">
        <g transform="translate(255.700282, 81.942379)" fill="#000000" fill-rule="nonzero" id="Path_3950">
            <path d="M573.879844,192.974281 C585.249844,215.840281 590.611844,239.423281 592.616844,263.674281 C593.316844,272.162281 601.016844,274.679281 603.816844,281.529281 C614.388844,307.369281 605.262844,330.871281 597.205844,354.650281 C593.665844,365.098281 587.324844,374.430281 584.986844,385.431281 C583.786844,391.082281 579.770844,391.190281 574.419844,388.940281 C580.383844,369.883281 584.006844,350.900281 578.819844,331.300281 C575.212844,317.678281 569.584844,304.972281 562.932844,292.593281 C559.492844,286.193281 552.332844,285.893281 547.656844,281.830281 C538.399844,273.789281 526.594844,269.089281 518.885844,258.918281 C515.233844,254.099281 509.818844,254.583281 505.405844,258.690281 C484.180241,278.261105 458.596703,292.492464 430.774844,300.205281 C395.462844,310.205281 359.782844,319.800281 322.394844,321.205281 C290.469844,322.405281 258.733844,323.387281 227.059844,318.642281 C222.001844,317.884281 218.605844,319.832281 216.936844,324.334281 C204.403844,358.134281 180.573844,383.339281 153.948844,406.144281 C141.175844,417.083281 135.229844,430.797281 132.377844,446.687281 C130.139844,459.156281 126.756844,471.415281 126.333844,484.313281 C117.686844,484.985281 118.090844,479.462281 117.793844,474.401281 C116.029844,444.329281 87.9938439,411.301281 58.3888439,404.391281 C48.7128439,402.131281 34.3488439,411.398281 27.7518439,424.561281 C24.9218439,430.208281 22.9108439,436.309281 15.6228439,439.178281 C5.18484391,425.361281 6.05284391,408.566281 3.01584391,393.306281 C-3.66015609,359.760281 1.92184391,326.451281 8.39284391,293.343281 C14.9098439,260.000281 29.1238439,229.282281 45.5848439,200.449281 C66.2008439,164.339281 92.9308439,132.324281 127.910844,108.104281 C151.332844,91.8882809 175.110844,76.8942809 202.689844,68.5692809 C220.801844,63.1022809 235.839844,51.2102809 252.267844,42.3442809 C269.476844,33.0562809 286.077844,25.0032809 306.143844,27.1022809 C319.387844,28.4882809 329.443844,25.3532809 336.943844,12.1842809 C342.372844,2.6562809 353.091844,-1.3767191 365.665844,0.414280904 C385.396844,3.2242809 404.477844,8.9972809 424.641844,10.2752809 C455.463844,12.2282809 480.462844,28.1122809 502.754844,48.7752809 C527.060844,71.3032809 542.694844,98.4262809 550.217844,130.799281 C553.203844,143.648281 555.817844,156.412281 557.642844,169.464281 C559.004844,179.195281 568.761844,184.103281 573.879844,192.974281 Z"></path>
        </g>
    </g>
</svg>