<?xml version="1.0" encoding="UTF-8"?>
<svg width="1059px" height="993px" viewBox="0 0 1059 993" version="1.1" xmlns="http://www.w3.org/2000/svg" xmlns:xlink="http://www.w3.org/1999/xlink">
    <title>Hair/19</title>
    <g id="Hair/19" stroke="none" stroke-width="1" fill="none" fill-rule="evenodd">
        <g transform="translate(233.000000, 134.000000)" fill="#000000" fill-rule="nonzero" id="Path_3944">
            <path d="M640.702928,152.870604 C637.751119,156.387686 632.997322,157.023701 632.433448,162.582831 C644.630981,170.194009 656.323837,178.873212 662.099028,193.400551 C669.368184,211.686979 663.60403,228.801379 657.354261,245.469769 C647.199517,272.539402 632.048168,297.242979 617.961357,322.385567 C613.474447,330.392754 611.826972,339.901976 604.36618,348.301173 C600.60468,339.371964 602.646465,331.752786 603.121042,323.990604 C606.113988,275.05646 601.198654,228.049361 565.813066,189.812468 C558.472673,181.881282 550.422924,174.040099 538.447127,170.502016 C531.082655,182.789303 527.275002,196.865632 517.415238,207.831889 C490.457656,237.81359 456.791783,255.945014 418.814583,268.273302 C404.449848,272.935411 389.995817,275.04946 375.418375,277.537518 C369.197704,278.597543 363.668329,281.349608 360.058333,285.987716 C353.480475,294.437914 344.479564,298.916018 335.413437,303.644129 C307.793655,318.044465 278.370882,322.170562 247.697955,318.975487 C241.914737,318.375473 238.846541,319.581501 235.988042,325.580642 C223.386165,352.02826 207.045866,374.947796 178.123756,386.723071 C164.468379,392.283201 155.931009,403.706468 154.321661,419.18383 C153.944407,422.814915 155.163458,427.016013 150.841095,430.038084 C141.951554,428.59505 145.760211,421.219878 144.74885,416.147759 C139.201416,388.329109 128.924264,363.266523 105.251599,345.346104 C84.4263957,329.579735 54.8230223,347.003143 49.8324383,363.468527 C42.4137858,387.9451 35.9864274,412.394671 41.9241588,439.313301 C46.9689228,462.181835 53.2959477,484.499357 60.0845064,506.793878 C60.8214873,508.620098 60.314099,510.71124 58.8213088,512 C47.1455096,506.899881 41.9311821,495.230608 36.6395979,485.518381 C21.6718594,458.045739 6.37101403,430.096085 1.66236698,398.731352 C-3.03725006,367.43062 1.9011605,337.403918 20.6655153,310.445288 C33.6857823,291.73885 49.2605379,275.90748 68.4723797,263.770197 C83.562525,254.238974 90.0250001,238.717611 95.6888212,223.494255 C114.421069,173.145078 148.42306,134.973185 189.462435,101.861411 C218.988552,78.0388543 250.20027,56.6603545 284.670817,40.8749855 C329.235909,20.4695084 374.970888,3.26310614 424.984085,1.36406174 C434.293019,1.01005347 443.384229,-1.33600138 452.86373,1.07605501 C477.285886,7.29620043 489.065028,20.2405031 487.904171,45.1500854 C487.591131,51.8782427 486.746323,58.5813994 486.023923,66.6625884 C497.900389,66.9735956 509.089571,64.2625323 519.548326,60.7484501 C547.942682,51.2162272 577.248065,45.9181034 606.548431,40.811984 C625.064963,37.5859086 643.459087,41.6650039 659.36695,51.4542328 C684.62087,66.9915961 684.368029,105.695501 665.149164,129.456056 C658.095725,138.17126 648.116564,143.461384 640.702928,152.870604 Z"></path>
        </g>
    </g>
</svg>